<?xml version="1.0" standalone="no"?>
<!DOCTYPE svg PUBLIC "-//W3C//DTD SVG 20010904//EN"
 "http://www.w3.org/TR/2001/REC-SVG-20010904/DTD/svg10.dtd">
<svg version="1.0" xmlns="http://www.w3.org/2000/svg"
 width="512.000000pt" height="512.000000pt" viewBox="0 0 512.000000 512.000000"
 preserveAspectRatio="xMidYMid meet">

<g transform="translate(0.000000,512.000000) scale(0.100000,-0.100000)"
fill="#000000" stroke="none">
<path d="M2987 5105 c-509 -73 -836 -377 -948 -883 -21 -90 -22 -130 -26 -569
l-5 -473 -404 0 -404 0 0 -460 0 -460 405 0 405 0 0 -1109 c0 -1048 1 -1110
18 -1115 144 -41 779 -40 950 1 l22 5 0 1109 0 1109 370 0 370 0 5 23 c6 26
135 873 135 887 0 6 -158 10 -440 10 l-440 0 0 323 c0 177 5 351 11 387 22
140 110 267 225 324 99 50 148 56 426 56 l258 0 0 394 0 394 -77 11 c-291 44
-687 61 -856 36z"/>
</g>
</svg>
