<?xml version="1.0" standalone="no"?>
<!DOCTYPE svg PUBLIC "-//W3C//DTD SVG 20010904//EN"
 "http://www.w3.org/TR/2001/REC-SVG-20010904/DTD/svg10.dtd">
<svg version="1.0" xmlns="http://www.w3.org/2000/svg"
 width="292.000000pt" height="293.000000pt" viewBox="0 0 292.000000 293.000000"
 preserveAspectRatio="xMidYMid meet">

<g transform="translate(0.000000,293.000000) scale(0.100000,-0.100000)"
fill="#000000" stroke="none">
<path d="M615 2913 c-155 -32 -266 -94 -385 -213 -68 -67 -96 -105 -133 -177
-91 -175 -87 -133 -87 -1058 0 -785 1 -814 20 -889 58 -221 207 -399 415 -496
138 -65 175 -70 498 -70 l287 0 0 490 0 490 -182 2 -183 3 0 210 0 210 181 3
181 2 6 223 c3 159 9 238 21 280 54 195 181 322 374 374 78 21 305 20 417 -2
11 -2 32 -4 48 -4 l27 -1 0 -184 0 -184 -132 -4 c-152 -4 -206 -22 -246 -81
-36 -54 -42 -92 -42 -259 l0 -158 203 0 204 0 -33 -208 c-18 -114 -33 -210
-34 -214 0 -5 -76 -8 -170 -8 l-170 0 0 -495 0 -495 253 0 c257 0 374 11 465
44 202 73 387 253 468 457 l29 74 3 860 c2 590 -1 874 -8 905 -58 242 -265
471 -496 549 -116 39 -166 41 -959 40 -642 -1 -782 -3 -840 -16z"/>
</g>
</svg>
