<?xml version="1.0" standalone="no"?>
<!DOCTYPE svg PUBLIC "-//W3C//DTD SVG 20010904//EN"
 "http://www.w3.org/TR/2001/REC-SVG-20010904/DTD/svg10.dtd">
<svg version="1.0" xmlns="http://www.w3.org/2000/svg"
 width="287.000000pt" height="290.000000pt" viewBox="0 0 287.000000 290.000000"
 preserveAspectRatio="xMidYMid meet">

<g transform="translate(0.000000,290.000000) scale(0.100000,-0.100000)"
fill="#000000" stroke="none">
<path d="M540 2884 c-205 -55 -381 -201 -483 -402 l-52 -104 -3 -916 -2 -916
25 -67 c70 -182 200 -326 375 -414 136 -68 83 -65 1033 -65 752 0 867 2 921
16 191 49 383 216 482 419 l29 60 3 939 2 940 -51 105 c-46 93 -63 117 -148
202 -86 86 -108 102 -201 147 -58 27 -126 55 -152 61 -32 8 -307 11 -885 10
-704 0 -847 -3 -893 -15z m1360 -588 c77 -17 181 -77 245 -141 66 -66 125
-170 142 -250 10 -50 11 -844 0 -905 -11 -69 -70 -184 -124 -241 -63 -68 -151
-125 -233 -150 -63 -19 -90 -20 -516 -17 l-449 3 -55 24 c-170 75 -297 225
-324 382 -3 19 -6 223 -6 453 0 389 2 425 20 486 50 168 196 308 370 354 45
12 130 15 475 12 231 -1 436 -6 455 -10z"/>
<path d="M1003 2125 c-94 -26 -175 -94 -225 -187 -23 -42 -23 -50 -28 -443 -3
-220 -1 -422 3 -449 12 -71 45 -135 97 -186 42 -43 117 -86 164 -96 12 -2 204
-4 429 -4 386 0 410 1 462 21 77 29 155 102 191 181 l29 63 0 425 0 425 -26
55 c-39 82 -90 135 -167 172 l-67 33 -405 2 c-326 2 -415 -1 -457 -12z m959
-154 c27 -24 33 -36 33 -70 0 -58 -48 -106 -106 -106 -34 0 -46 6 -70 33 -90
101 42 233 143 143z m-348 -135 c167 -75 266 -237 254 -419 -15 -230 -228
-413 -458 -394 -129 11 -270 100 -334 212 -91 159 -69 366 54 499 48 52 88 79
169 113 49 21 68 23 156 20 81 -3 111 -9 159 -31z"/>
<path d="M1409 1709 c-219 -33 -306 -294 -150 -449 88 -88 214 -102 322 -37
90 54 138 153 126 258 -17 144 -155 250 -298 228z"/>
</g>
</svg>
