<?xml version="1.0" standalone="no"?>
<!DOCTYPE svg PUBLIC "-//W3C//DTD SVG 20010904//EN"
 "http://www.w3.org/TR/2001/REC-SVG-20010904/DTD/svg10.dtd">
<svg version="1.0" xmlns="http://www.w3.org/2000/svg"
 width="153.000000pt" height="152.000000pt" viewBox="0 0 153.000000 152.000000"
 preserveAspectRatio="xMidYMid meet">

<g transform="translate(0.000000,152.000000) scale(0.100000,-0.100000)"
fill="#000000" stroke="none">
<path d="M347 1509 c-151 -36 -281 -162 -321 -311 -15 -55 -17 -113 -14 -463
3 -388 4 -402 25 -455 46 -111 140 -205 252 -252 55 -22 65 -23 446 -26 428
-4 460 -1 559 51 115 61 202 179 226 306 13 70 13 732 0 802 -23 123 -110 244
-219 303 -99 53 -123 56 -536 55 -209 -1 -397 -5 -418 -10z m858 -153 c67 -30
122 -82 152 -144 l28 -57 0 -400 c0 -399 0 -400 -23 -447 -32 -63 -85 -116
-146 -144 -51 -24 -52 -24 -447 -24 l-396 0 -61 31 c-65 32 -99 66 -135 133
-21 40 -22 51 -25 430 -3 341 -1 396 14 442 29 94 118 174 215 194 24 4 211 8
414 6 334 -1 374 -3 410 -20z"/>
<path d="M1118 1231 c-75 -67 -7 -182 89 -150 32 10 63 51 63 83 0 47 -51 96
-99 96 -12 0 -35 -13 -53 -29z"/>
<path d="M649 1132 c-280 -93 -366 -446 -158 -654 192 -192 510 -137 632 111
42 85 49 206 18 294 -55 157 -187 255 -354 263 -61 3 -96 0 -138 -14z m221
-143 c60 -27 98 -64 126 -124 66 -140 -7 -307 -153 -351 -60 -18 -99 -18 -155
2 -171 58 -229 274 -109 407 74 82 195 110 291 66z"/>
</g>
</svg>
