<?xml version="1.0" standalone="no"?>
<!DOCTYPE svg PUBLIC "-//W3C//DTD SVG 20010904//EN"
 "http://www.w3.org/TR/2001/REC-SVG-20010904/DTD/svg10.dtd">
<svg version="1.0" xmlns="http://www.w3.org/2000/svg"
 width="293.000000pt" height="293.000000pt" viewBox="0 0 293.000000 293.000000"
 preserveAspectRatio="xMidYMid meet">

<g transform="translate(0.000000,293.000000) scale(0.100000,-0.100000)"
fill="#000000" stroke="none">
<path d="M614 2905 c-147 -32 -265 -98 -378 -210 -85 -84 -131 -153 -173 -255
-52 -131 -53 -135 -53 -985 0 -760 1 -793 20 -875 61 -254 243 -453 497 -544
l88 -31 832 -3 c806 -2 835 -2 914 18 248 61 447 249 541 510 l23 65 3 827 c3
801 2 831 -17 913 -62 257 -253 462 -516 553 l-80 27 -820 2 c-657 1 -832 -1
-881 -12z m439 -729 c117 -42 150 -183 64 -274 -29 -32 -49 -41 -97 -48 -55
-8 -103 11 -144 56 -61 67 -60 153 1 221 50 56 106 70 176 45z m970 -450 c65
-29 127 -97 152 -168 17 -47 20 -91 23 -395 l3 -343 -145 0 -145 0 -3 293 c-3
327 -7 345 -73 373 -96 40 -196 -6 -219 -100 -4 -16 -7 -150 -6 -298 l0 -268
-150 0 -150 0 2 458 3 457 135 0 135 0 5 -58 5 -59 23 31 c31 42 93 82 150 97
70 18 191 9 255 -20z m-875 -448 l2 -458 -150 0 -150 0 0 453 c0 250 3 457 7
461 4 3 70 5 147 4 l141 -3 3 -457z"/>
</g>
</svg>
