<?xml version="1.0" standalone="no"?>
<!DOCTYPE svg PUBLIC "-//W3C//DTD SVG 20010904//EN"
 "http://www.w3.org/TR/2001/REC-SVG-20010904/DTD/svg10.dtd">
<svg version="1.0" xmlns="http://www.w3.org/2000/svg"
 width="125.000000pt" height="120.000000pt" viewBox="0 0 125.000000 120.000000"
 preserveAspectRatio="xMidYMid meet">

<g transform="translate(0.000000,120.000000) scale(0.100000,-0.100000)"
fill="#000000" stroke="none">
<path d="M106 1190 c-58 -18 -106 -85 -106 -147 0 -40 32 -94 70 -120 99 -68
239 16 227 136 -10 94 -103 158 -191 131z"/>
<path d="M900 824 c-69 -13 -125 -39 -161 -75 l-39 -39 0 50 0 50 -140 0 -140
0 0 -405 0 -405 140 0 140 0 0 252 c0 249 0 252 25 293 42 72 125 94 192 50
48 -32 53 -64 53 -340 l0 -255 141 0 140 0 -3 293 -3 292 -29 63 c-34 74 -104
142 -164 160 -48 15 -119 22 -152 16z"/>
<path d="M10 405 l0 -405 140 0 140 0 0 405 0 405 -140 0 -140 0 0 -405z"/>
</g>
</svg>
