<?xml version="1.0" standalone="no"?>
<!DOCTYPE svg PUBLIC "-//W3C//DTD SVG 20010904//EN"
 "http://www.w3.org/TR/2001/REC-SVG-20010904/DTD/svg10.dtd">
<svg version="1.0" xmlns="http://www.w3.org/2000/svg"
 width="152.000000pt" height="144.000000pt" viewBox="0 0 152.000000 144.000000"
 preserveAspectRatio="xMidYMid meet">

<g transform="translate(0.000000,144.000000) scale(0.100000,-0.100000)"
fill="#000000" stroke="none">
<path d="M662 1419 c-126 -25 -247 -132 -283 -251 -5 -18 -10 -101 -9 -185 0
-140 -2 -153 -19 -163 -26 -13 -58 -12 -102 4 -43 15 -82 5 -77 -21 2 -11 29
-28 73 -46 86 -34 115 -60 115 -102 0 -83 -132 -250 -242 -305 -34 -16 -69
-30 -79 -30 -67 0 14 -53 101 -66 65 -10 76 -18 89 -69 10 -39 14 -45 34 -41
124 26 189 13 298 -60 90 -59 130 -74 204 -74 72 0 115 15 187 64 104 71 125
79 208 80 41 0 87 -3 102 -7 26 -7 28 -5 39 38 13 51 24 59 89 69 87 13 168
66 101 66 -10 0 -45 14 -78 30 -109 55 -230 202 -240 293 -6 53 15 75 112 114
73 30 92 53 56 73 -16 8 -33 7 -72 -6 -37 -12 -59 -14 -78 -8 l-26 9 -5 175
c-5 171 -6 176 -35 228 -85 154 -268 230 -463 191z"/>
</g>
</svg>
