<?xml version="1.0" standalone="no"?>
<!DOCTYPE svg PUBLIC "-//W3C//DTD SVG 20010904//EN"
 "http://www.w3.org/TR/2001/REC-SVG-20010904/DTD/svg10.dtd">
<svg version="1.0" xmlns="http://www.w3.org/2000/svg"
 width="295.000000pt" height="292.000000pt" viewBox="0 0 295.000000 292.000000"
 preserveAspectRatio="xMidYMid meet">

<g transform="translate(0.000000,292.000000) scale(0.100000,-0.100000)"
fill="#000000" stroke="none">
<path d="M634 2905 c-292 -63 -529 -300 -588 -587 -14 -67 -16 -184 -16 -865
0 -744 1 -792 19 -868 24 -98 51 -160 106 -245 79 -122 204 -226 338 -283 137
-57 131 -57 1012 -57 788 0 812 1 885 21 248 68 451 265 536 519 17 51 19 110
22 882 3 805 2 830 -18 914 -56 236 -232 438 -460 531 -131 53 -134 53 -985
52 -619 0 -803 -3 -851 -14z m1006 -621 c114 -32 220 -107 280 -196 55 -83 71
-163 67 -339 l-3 -141 30 6 c102 19 141 18 169 -4 30 -24 36 -63 13 -96 -8
-11 -43 -33 -78 -48 -105 -45 -113 -50 -116 -79 -4 -35 49 -135 104 -196 59
-65 113 -101 201 -131 42 -14 81 -33 87 -42 24 -39 -69 -109 -164 -124 -66
-10 -79 -20 -91 -70 -15 -60 -31 -67 -122 -53 -105 16 -166 1 -262 -63 -124
-81 -157 -93 -260 -93 -103 0 -140 13 -265 95 -95 62 -150 75 -256 61 -88 -13
-124 0 -124 43 0 40 -30 66 -98 81 -82 19 -140 50 -154 81 -18 38 -1 55 84 84
44 15 99 44 131 68 76 57 177 201 177 251 0 29 -22 46 -98 75 -113 43 -146
103 -86 154 29 25 36 26 157 6 l37 -6 0 161 c0 180 14 245 71 327 68 99 226
191 354 207 54 6 159 -3 215 -19z"/>
</g>
</svg>
